<svg width="24" height="27" viewBox="0 0 24 27" fill="none" xmlns="http://www.w3.org/2000/svg">
<path d="M6.86014 14.9709C2.97225 13.7212 3.62758 9.0208 5.16948 6.05872C5.94722 4.56465 8.15735 1.61677 9.43639 4.42441C9.7952 5.21206 9.66759 6.06559 9.44444 6.86379C9.42111 6.94724 8.62507 8.46273 8.93724 7.79768C10.0729 5.37829 13.0881 3.47243 15.3617 2.30706C16.741 1.60011 22.2757 -0.623297 21.3032 3.03968C20.224 7.10457 9.43704 14.8859 12.8016 12.3625 M6.88602 15.0273C5.32328 15.932 4.82978 16.5078 3.55932 17.7404C2.61949 18.852 0.838402 21.0638 1.60299 22.6594C3.14808 25.884 8.49151 22.9373 10.483 21.8624C12.829 20.5961 15.1882 19.1677 17.1812 17.3862C18.3084 16.3786 19.76 14.9178 19.3227 13.2561C18.595 10.4909 13.892 12.2994 12.2322 12.8065" fill="#080A0D"/>
</svg>
